<svg xmlns="http://www.w3.org/2000/svg" xmlns:xlink="http://www.w3.org/1999/xlink">
  <symbol viewBox="0 0 24 24" id="chevron-right"><path fill="currentColor" d="M12.6 12L8 7.4L9.4 6l6 6l-6 6L8 16.6l4.6-4.6Z"></path></symbol>
  <symbol viewBox="0 0 24 24" id="chevron-left"><path fill="currentColor" d="m14 18l-6-6l6-6l1.4 1.4l-4.6 4.6l4.6 4.6L14 18Z"></path></symbol>
  <symbol viewBox="0 0 24 24" id="chevron-down"><path fill="currentColor" d="M7.41 8.58L12 13.17l4.59-4.59L18 10l-6 6l-6-6l1.41-1.42Z"></path></symbol>
  <symbol viewBox="0 0 24 24" id="chevron-up"><path fill="currentColor" d="M7.41 15.41L12 10.83l4.59 4.58L18 14l-6-6l-6 6l1.41 1.41Z"></path></symbol>
  <symbol viewBox="0 0 24 24" id="check-outline"><path fill="currentColor" d="m10.5 16.2l-4-4l1.4-1.4l2.6 2.6l5.6-5.6l1.4 1.4l-7 7Z"></path></symbol>
  <symbol viewBox="0 0 24 24" id="close-outline"><path fill="currentColor" d="M6.4 19L5 17.6l5.6-5.6L5 6.4L6.4 5l5.6 5.6L17.6 5L19 6.4L13.4 12l5.6 5.6l-1.4 1.4l-5.6-5.6L6.4 19Z"></path></symbol>
  <symbol viewBox="0 0 24 24" id="add-outline"><path fill="currentColor" d="M19 13h-6v6h-2v-6H5v-2h6V5h2v6h6v2z"></path></symbol>
</svg>