<svg xmlns="http://www.w3.org/2000/svg" xmlns:xlink="http://www.w3.org/1999/xlink">
  <symbol viewBox="0 0 24 24" id="chevron-right"><path fill="currentColor" d="M12.6 12L8 7.4L9.4 6l6 6l-6 6L8 16.6l4.6-4.6Z"></path></symbol>
  <symbol viewBox="0 0 24 24" id="chevron-left"><path fill="currentColor" d="m14 18l-6-6l6-6l1.4 1.4l-4.6 4.6l4.6 4.6L14 18Z"></path></symbol>
  <symbol viewBox="0 0 24 24" id="chevron-down"><path fill="currentColor" d="M7.41 8.58L12 13.17l4.59-4.59L18 10l-6 6l-6-6l1.41-1.42Z"></path></symbol>
  <symbol viewBox="0 0 24 24" id="chevron-up"><path fill="currentColor" d="M7.41 15.41L12 10.83l4.59 4.58L18 14l-6-6l-6 6l1.41 1.41Z"></path></symbol>
  <symbol viewBox="0 0 24 24" id="check-outline"><path fill="currentColor" d="m10.5 16.2l-4-4l1.4-1.4l2.6 2.6l5.6-5.6l1.4 1.4l-7 7Z"></path></symbol>
  <symbol viewBox="0 0 24 24" id="close-outline"><path fill="currentColor" d="M6.4 19L5 17.6l5.6-5.6L5 6.4L6.4 5l5.6 5.6L17.6 5L19 6.4L13.4 12l5.6 5.6l-1.4 1.4l-5.6-5.6L6.4 19Z"></path></symbol>
  <symbol viewBox="0 0 24 24" id="add-outline"><path fill="currentColor" d="M19 13h-6v6h-2v-6H5v-2h6V5h2v6h6v2z"></path></symbol>
  <symbol viewBox="0 0 24 24" id="teams"><path fill="none" stroke="currentColor" stroke-linecap="round" stroke-linejoin="round" stroke-width="2" d="M11 4a1 1 0 1 0 2 0a1 1 0 1 0-2 0m-8 8a1 1 0 1 0 2 0a1 1 0 1 0-2 0m16 0a1 1 0 1 0 2 0a1 1 0 1 0-2 0m-8 8a1 1 0 1 0 2 0a1 1 0 1 0-2 0M5.5 5.5l3 3m7 7l3 3m0-13l-3 3m-7 7l-3 3"></path></symbol>
  <symbol viewBox="0 0 24 24" id="partnership"><path fill="currentColor" d="M12 9L8.5 5.5L12 2l3.5 3.5zM1 20v-4q0-.85.588-1.425T3 14h3.275q.5 0 .95.25t.725.675q.725.975 1.788 1.525T12 17q1.225 0 2.288-.55t1.762-1.525q.325-.425.763-.675t.912-.25H21q.85 0 1.425.575T23 16v4h-7v-2.275q-.875.625-1.888.95T12 19q-1.075 0-2.1-.337T8 17.7V20zm3-7q-1.25 0-2.125-.875T1 10q0-1.275.875-2.137T4 7q1.275 0 2.138.863T7 10q0 1.25-.862 2.125T4 13m16 0q-1.25 0-2.125-.875T17 10q0-1.275.875-2.137T20 7q1.275 0 2.138.863T23 10q0 1.25-.862 2.125T20 13"></path></symbol>
  <symbol viewBox="0 0 24 24" id="engineering"><g fill="none" stroke="currentColor" stroke-linecap="round" stroke-linejoin="round" stroke-width="1.5" color="currentColor"><path d="M20.663 8.85c.59-2.04.424-3.81-.64-4.874c-2.249-2.249-7.664-.48-12.096 3.951A22 22 0 0 0 6.6 9.377m10.8 5.247q-.617.736-1.327 1.449c-4.432 4.431-9.847 6.2-12.097 3.95c-1.14-1.14-1.248-3.095-.498-5.323"></path><path d="m12.675 9.3l-1.75 2.07c-.215.278-.321.416-.255.523s.259.107.644.107h1.373c.385 0 .578 0 .644.107s-.04.245-.255.523l-1.762 2.07M9.75 17.706a22 22 0 0 1-1.823-1.633c-4.431-4.432-6.2-9.847-3.95-12.097c1.14-1.14 3.095-1.248 5.323-.498m4.95 16.883c2.413.92 4.557.88 5.774-.337c2.249-2.25.48-7.665-3.951-12.097a22 22 0 0 0-1.823-1.633"></path></g></symbol>
  <symbol viewBox="0 0 24 24" id="products"><path fill="currentColor" d="M8 11.75V7.5q0-.625.438-1.062T9.5 6t1.063.438T11 7.5v4.25q0 .625-.437 1.063T9.5 13.25t-1.062-.437T8 11.75m5-.225V3.5q0-.625.438-1.062T14.5 2t1.063.438T16 3.5v8.025q0 .75-.462 1.125t-1.038.375t-1.037-.375T13 11.525m-10 3.45V11.5q0-.625.438-1.062T4.5 10t1.063.438T6 11.5v3.475q0 .75-.462 1.125t-1.038.375t-1.037-.375T3 14.975m2.4 6.075q-.65 0-.913-.612T4.7 19.35l4.1-4.1q.275-.275.663-.3t.687.25L13 17.65l5.6-5.6H18q-.425 0-.712-.288T17 11.05t.288-.712t.712-.288h3q.425 0 .713.288t.287.712v3q0 .425-.288.713T21 15.05t-.712-.288T20 14.05v-.6l-6.25 6.25q-.275.275-.663.3t-.687-.25L9.55 17.3L6.1 20.75q-.125.125-.312.213t-.388.087"></path></symbol>
  <symbol viewBox="0 0 24 24" id="note-stack-outline"><path fill="currentColor" d="M7 20V8.975q0-.825.6-1.4T9.025 7H20q.825 0 1.413.587T22 9v8l-5 5H9q-.825 0-1.412-.587T7 20M2.025 6.25q-.15-.825.325-1.487t1.3-.813L14.5 2.025q.825-.15 1.488.325t.812 1.3L17.05 5H15l-.175-1L4 5.925l1 5.65v6.975q-.4-.225-.687-.6t-.363-.85zM9 9v11h7v-4h4V9zm5.5 5.5"></path></symbol>
</svg>