<svg xmlns="http://www.w3.org/2000/svg" xmlns:xlink="http://www.w3.org/1999/xlink">
  <symbol viewBox="0 0 24 24" id="chevron-right"><path fill="currentColor" d="M12.6 12L8 7.4L9.4 6l6 6l-6 6L8 16.6l4.6-4.6Z"></path></symbol>
  <symbol viewBox="0 0 24 24" id="chevron-left"><path fill="currentColor" d="m14 18l-6-6l6-6l1.4 1.4l-4.6 4.6l4.6 4.6L14 18Z"></path></symbol>
  <symbol viewBox="0 0 24 24" id="chevron-down"><path fill="currentColor" d="M7.41 8.58L12 13.17l4.59-4.59L18 10l-6 6l-6-6l1.41-1.42Z"></path></symbol>
  <symbol viewBox="0 0 24 24" id="chevron-up"><path fill="currentColor" d="M7.41 15.41L12 10.83l4.59 4.58L18 14l-6-6l-6 6l1.41 1.41Z"></path></symbol>
  <symbol viewBox="0 0 24 24" id="check-outline"><path fill="currentColor" d="m10.5 16.2l-4-4l1.4-1.4l2.6 2.6l5.6-5.6l1.4 1.4l-7 7Z"></path></symbol>
  <symbol viewBox="0 0 24 24" id="close-outline"><path fill="currentColor" d="M6.4 19L5 17.6l5.6-5.6L5 6.4L6.4 5l5.6 5.6L17.6 5L19 6.4L13.4 12l5.6 5.6l-1.4 1.4l-5.6-5.6L6.4 19Z"></path></symbol>
  <symbol viewBox="0 0 24 24" id="add-outline"><path fill="currentColor" d="M19 13h-6v6h-2v-6H5v-2h6V5h2v6h6v2z"></path></symbol>
  <symbol viewBox="0 0 24 24" id="teams"><path fill="none" stroke="currentColor" stroke-linecap="round" stroke-linejoin="round" stroke-width="2" d="M11 4a1 1 0 1 0 2 0a1 1 0 1 0-2 0m-8 8a1 1 0 1 0 2 0a1 1 0 1 0-2 0m16 0a1 1 0 1 0 2 0a1 1 0 1 0-2 0m-8 8a1 1 0 1 0 2 0a1 1 0 1 0-2 0M5.5 5.5l3 3m7 7l3 3m0-13l-3 3m-7 7l-3 3"></path></symbol>
  <symbol viewBox="0 0 24 24" id="business"><path fill="currentColor" d="M12.75 3.94c1-.72 2.16-1.08 3.47-1.08c.72 0 1.51.19 2.37.59q1.29.585 2.04 1.38c1.03 1.28 1.46 2.77 1.31 4.47c-.16 1.7-.72 3.03-1.69 3.97l-7.59 7.59c-.19.19-.43.28-.71.28s-.51-.09-.7-.28a.94.94 0 0 1-.28-.7c0-.28.09-.52.28-.71l4.59-4.59c.25-.22.25-.45 0-.7s-.48-.25-.7 0l-4.59 4.59a.95.95 0 0 1-.71.28c-.28 0-.51-.09-.7-.28a.94.94 0 0 1-.28-.7c0-.28.09-.52.28-.71l4.59-4.59q.405-.375 0-.75c-.23-.25-.45-.25-.7 0l-4.59 4.64a.98.98 0 0 1-.71.28c-.28 0-.52-.09-.73-.28c-.2-.19-.3-.42-.3-.7q0-.42.33-.75l4.6-4.6c.25-.25.25-.48 0-.7s-.49-.22-.71 0L6.28 14.5c-.22.2-.45.31-.7.31c-.28 0-.52-.1-.7-.31c-.19-.2-.29-.44-.29-.72s.1-.51.29-.7C7.94 10 9.83 8.14 10.55 7.45l3.56 3.52c.39.37.84.56 1.39.56c.7 0 1.25-.28 1.66-.84c.28-.41.38-.86.3-1.36s-.29-.92-.63-1.27zm2.06 6.33L10.55 6l-7.08 7.08c-.84-.85-1.32-2.15-1.43-3.92c-.11-1.76.37-3.29 1.43-4.57c1.19-1.18 2.61-1.78 4.26-1.78c1.66 0 3.07.6 4.22 1.78l4.27 4.27c.19.19.28.42.28.7s-.09.52-.28.71c-.19.18-.42.28-.72.28c-.27 0-.5-.1-.69-.28"></path></symbol>
  <symbol viewBox="0 0 24 24" id="partnership"><path fill="currentColor" d="M12 9L8.5 5.5L12 2l3.5 3.5zM1 20v-4q0-.85.588-1.425T3 14h3.275q.5 0 .95.25t.725.675q.725.975 1.788 1.525T12 17q1.225 0 2.288-.55t1.762-1.525q.325-.425.763-.675t.912-.25H21q.85 0 1.425.575T23 16v4h-7v-2.275q-.875.625-1.888.95T12 19q-1.075 0-2.1-.337T8 17.7V20zm3-7q-1.25 0-2.125-.875T1 10q0-1.275.875-2.137T4 7q1.275 0 2.138.863T7 10q0 1.25-.862 2.125T4 13m16 0q-1.25 0-2.125-.875T17 10q0-1.275.875-2.137T20 7q1.275 0 2.138.863T23 10q0 1.25-.862 2.125T20 13"></path></symbol>
</svg>